<svg xmlns="http://www.w3.org/2000/svg" style="display: none;">

    <!-- Bolt Icon -->
    <svg id="bolt-icon">
        <!-- ... contents of the bolt-icon SVG ... -->
        <g clip-path="url(#clip0_1_9)">
            <path d="M33.2999 15.625H20.3174L25.1099 2.94922C25.5599 1.46484 24.2662 0 22.4999 0H6.29991C4.94991 0 3.80241 0.869141 3.62241 2.03125L0.0224083 25.4687C-0.191342 26.875 1.06866 28.125 2.69991 28.125H16.0537L10.8674 47.1191C10.4624 48.6035 11.7674 50 13.4887 50C14.4337 50 15.3337 49.5703 15.8287 48.8281L35.6287 19.1406C36.6749 17.5879 35.3812 15.625 33.2999 15.625Z"/>
        </g>
    </svg>

    <!-- Search Icon -->
    <svg  id="search-icon">
        <!-- ... contents of the search-icon SVG ... -->
        <path d="M36.5625 15.8438C36.5625 19.34 35.2529 22.5697 33.0469 25.19L44.1738 34.841C45.2725 35.7932 45.2725 37.3395 44.1738 38.2916C43.0752 39.2438 41.291 39.2438 40.1924 38.2916L29.0654 28.6406C26.042 30.5602 22.3154 31.6875 18.2812 31.6875C8.18262 31.6875 0 24.5959 0 15.8438C0 7.0916 8.18262 0 18.2812 0C28.3799 0 36.5625 7.0916 36.5625 15.8438ZM18.2812 26.8125C19.9433 26.8125 21.5891 26.5288 23.1246 25.9776C24.6601 25.4263 26.0553 24.6184 27.2306 23.5998C28.4058 22.5813 29.3381 21.3721 29.9741 20.0413C30.6101 18.7105 30.9375 17.2842 30.9375 15.8438C30.9375 14.4033 30.6101 12.977 29.9741 11.6462C29.3381 10.3154 28.4058 9.10621 27.2306 8.08767C26.0553 7.06913 24.6601 6.26118 23.1246 5.70995C21.5891 5.15872 19.9433 4.875 18.2812 4.875C16.6192 4.875 14.9734 5.15872 13.4379 5.70995C11.9024 6.26118 10.5072 7.06913 9.33193 8.08767C8.15669 9.10621 7.22444 10.3154 6.5884 11.6462C5.95236 12.977 5.625 14.4033 5.625 15.8438C5.625 17.2842 5.95236 18.7105 6.5884 20.0413C7.22444 21.3721 8.15669 22.5813 9.33193 23.5998C10.5072 24.6184 11.9024 25.4263 13.4379 25.9776C14.9734 26.5288 16.6192 26.8125 18.2812 26.8125Z"/>
    </svg>

    <!-- User Icon -->
    <svg  id="user-icon" >
        <!-- ... contents of the user-icon SVG ... v-->
        <path d="M18.5 15.5C21.3037 15.5 23.9926 14.6835 25.9751 13.2301C27.9577 11.7767 29.0714 9.80543 29.0714 7.75C29.0714 5.69457 27.9577 3.72333 25.9751 2.26992C23.9926 0.816516 21.3037 0 18.5 0C15.6963 0 13.0074 0.816516 11.0249 2.26992C9.04234 3.72333 7.92857 5.69457 7.92857 7.75C7.92857 9.80543 9.04234 11.7767 11.0249 13.2301C13.0074 14.6835 15.6963 15.5 18.5 15.5ZM14.7257 18.4062C6.59063 18.4062 0 23.2379 0 29.2018C0 30.1947 1.09844 31 2.4529 31H34.5471C35.9016 31 37 30.1947 37 29.2018C37 23.2379 30.4094 18.4062 22.2743 18.4062H14.7257Z" />
    </svg>

    <!-- Fave Icon -->
    <svg id="fave-icon">
        <!-- ... contents of the Fave-icon SVG ... -->
        <circle cx="21.5" cy="21.5" r="21.5" fill="#D9D9D9"/>
        <path d="M19.7 31L19.6 30.9 12.1 23.6C10.7 22.3 10 20.5 10 18.7V18.5C10 15.4 12.1 12.6 15.1 12C16.8 11.7 18.5 12.1 19.9 13.1 20.3 13.4 20.7 13.7 21 14.1 21.2 13.9 21.4 13.7 21.6 13.5 21.7 13.4 21.9 13.3 22.1 13.1 23.5 12.1 25.2 11.7 26.9 12 29.9 12.6 32 15.4 32 18.5V18.7C32 20.5 31.3 22.3 29.9 23.6L22.4 30.9 22.3 31C21.9 31.4 21.5 31.6 21 31.6 20.5 31.6 20.1 31.4 19.7 31ZM20.3 16.5C20.3 16.5 20.2 16.5 20.2 16.5L19.5 15.6 19.5 15.6C18.5 14.4 17 13.9 15.5 14.2 13.5 14.6 12.1 16.4 12.1 18.5V18.7C12.1 19.9 12.6 21.2 13.5 22L21 29.3 28.5 22C29.4 21.2 29.9 19.9 29.9 18.7V18.5C29.9 16.4 28.5 14.6 26.5 14.2 25 13.9 23.5 14.4 22.5 15.6 22.5 15.6 22.5 15.6 22.5 15.6L21.8 16.5C21.8 16.5 21.7 16.5 21.7 16.5 21.5 16.7 21.3 16.8 21 16.8 20.7 16.8 20.5 16.7 20.3 16.5Z"
              fill="black"/>

    </svg>

    <!-- Star Filled Rating Icon -->
    <svg id="star-filled-icon">
        <!-- ... contents of the star rating SVG ... -->
        <path d="M14.8547 0.84375C14.6062 0.328125 14.0813 0 13.5047 0C12.9281 0 12.4078 0.328125 12.1547 0.84375L9.14062 7.04531L2.40938 8.03906C1.84688 8.12344 1.37813 8.51719 1.20469 9.05625C1.03125 9.59531 1.17187 10.1906 1.575 10.5891L6.45938 15.4219L5.30625 22.2516C5.2125 22.8141 5.44688 23.3859 5.91094 23.7188C6.375 24.0516 6.98906 24.0938 7.49531 23.8266L13.5094 20.6156L19.5234 23.8266C20.0297 24.0938 20.6437 24.0562 21.1078 23.7188C21.5719 23.3813 21.8063 22.8141 21.7125 22.2516L20.5547 15.4219L25.4391 10.5891C25.8422 10.1906 25.9875 9.59531 25.8094 9.05625C25.6312 8.51719 25.1672 8.12344 24.6047 8.03906L17.8688 7.04531L14.8547 0.84375Z"
              fill="black" />
    </svg>

    <!-- Star Empty Rating Icon -->
    <svg id="star-empty-icon">
        <!-- ... contents of the star rating SVG ... -->
        <path d="M13.4953 0C13.9266 0 14.3203 0.24375 14.5078 0.632812L17.7234 7.25625L24.9047 8.31562C25.3266 8.37656 25.6781 8.67188 25.8094 9.07969C25.9406 9.4875 25.8328 9.92812 25.5328 10.2281L20.325 15.3937L21.5531 22.6875C21.6234 23.1094 21.45 23.5359 21.1031 23.7891C20.7562 24.0422 20.2922 24.0703 19.9172 23.8688L13.4953 20.4375L7.07812 23.8641C6.69844 24.0656 6.23906 24.0375 5.89219 23.7844C5.54531 23.5312 5.36719 23.1047 5.4375 22.6828L6.66562 15.3891L1.45781 10.2281C1.15312 9.92812 1.05 9.48281 1.18125 9.07969C1.3125 8.67656 1.66406 8.38125 2.08594 8.31562L9.26719 7.25625L12.4828 0.632812C12.675 0.24375 13.0641 0 13.4953 0ZM13.4953 3.70312L11.0344 8.775C10.8703 9.10781 10.5562 9.34219 10.1859 9.39844L4.64062 10.2141L8.66719 14.2031C8.925 14.4609 9.04687 14.8266 8.98594 15.1875L8.03437 20.7984L12.9656 18.1641C13.2984 17.9859 13.6969 17.9859 14.025 18.1641L18.9562 20.7984L18.0094 15.1922C17.9484 14.8313 18.0656 14.4656 18.3281 14.2078L22.3547 10.2188L16.8094 9.39844C16.4437 9.34219 16.125 9.1125 15.9609 8.775L13.4953 3.70312Z"
              />
    </svg>
    <svg id="circle-x-icon">
        <!-- ... contents of the star rating SVG ... -->
        <g clip-path="url(#clip0_50_782)">
            <path d="M15 3.28125C18.2323 3.28125 21.3323 4.77929 23.6179 7.44583C25.9035 10.1124 27.1875 13.729 27.1875 17.5C27.1875 21.271 25.9035 24.8876 23.6179 27.5542C21.3323 30.2207 18.2323 31.7188 15 31.7188C11.7677 31.7188 8.66774 30.2207 6.38214 27.5542C4.09654 24.8876 2.8125 21.271 2.8125 17.5C2.8125 13.729 4.09654 10.1124 6.38214 7.44583C8.66774 4.77929 11.7677 3.28125 15 3.28125ZM15 35C18.9782 35 22.7936 33.1563 25.6066 29.8744C28.4196 26.5925 30 22.1413 30 17.5C30 12.8587 28.4196 8.40752 25.6066 5.12563C22.7936 1.84374 18.9782 0 15 0C11.0218 0 7.20644 1.84374 4.3934 5.12563C1.58035 8.40752 0 12.8587 0 17.5C0 22.1413 1.58035 26.5925 4.3934 29.8744C7.20644 33.1563 11.0218 35 15 35ZM10.2539 11.9629C9.70312 12.6055 9.70312 13.6445 10.2539 14.2803L13.0078 17.4932L10.2539 20.7061C9.70312 21.3486 9.70312 22.3877 10.2539 23.0234C10.8047 23.6592 11.6953 23.666 12.2402 23.0234L14.9941 19.8105L17.748 23.0234C18.2988 23.666 19.1895 23.666 19.7344 23.0234C20.2793 22.3809 20.2852 21.3418 19.7344 20.7061L16.9805 17.4932L19.7344 14.2803C20.2852 13.6377 20.2852 12.5986 19.7344 11.9629C19.1836 11.3271 18.293 11.3203 17.748 11.9629L14.9941 15.1758L12.2402 11.9629C11.6895 11.3203 10.7988 11.3203 10.2539 11.9629Z"
                  fill="black"/>
        </g>
        <defs>
            <clipPath id="clip0_50_782">
                <rect width="30" height="35" fill="white"/>
            </clipPath>
        </defs>
    </svg>

    <!-- Lock Icon -->
    <svg id="lock-icon">
        <!-- ... contents of the star rating SVG ... -->
        <path d="M108.5 56C108.5 86.1251 84.5219 110.5 55 110.5C25.4781 110.5 1.5 86.1251 1.5 56C1.5 25.8749 25.4781 1.5 55 1.5C84.5219 1.5 108.5 25.8749 108.5 56Z"
              stroke="black" stroke-width="3"/>
        <g clip-path="url(#clip0_11_339)">
            <path d="M46.0244 41.8752V48.1002H63.2119V41.8752C63.2119 36.143 59.3662 31.5002 54.6182 31.5002C49.8701 31.5002 46.0244 36.143 46.0244 41.8752ZM39.1494 48.1002V41.8752C39.1494 31.565 46.0781 23.2002 54.6182 23.2002C63.1582 23.2002 70.0869 31.565 70.0869 41.8752V48.1002H71.8057C75.5977 48.1002 78.6807 51.8222 78.6807 56.4002V81.3002C78.6807 85.8782 75.5977 89.6002 71.8057 89.6002H37.4307C33.6387 89.6002 30.5557 85.8782 30.5557 81.3002V56.4002C30.5557 51.8222 33.6387 48.1002 37.4307 48.1002H39.1494Z"
                  fill="black"/>
        </g>
        <defs>
            <clipPath id="clip0_11_339">
                <rect width="48.125" height="66.4" fill="white" transform="translate(30.5557 23.2002)"/>
            </clipPath>
        </defs>
    </svg>

    <svg id="profile-placeholder">
        <g clip-path="url(#clip0_50_893)">
            <path d="M104 113C119.761 113 134.877 107.047 146.022 96.4515C157.167 85.8557 163.429 71.4847 163.429 56.5C163.429 41.5153 157.167 27.1443 146.022 16.5485C134.877 5.95266 119.761 0 104 0C88.2386 0 73.1227 5.95266 61.9776 16.5485C50.8326 27.1443 44.5714 41.5153 44.5714 56.5C44.5714 71.4847 50.8326 85.8557 61.9776 96.4515C73.1227 107.047 88.2386 113 104 113ZM82.7821 134.188C37.05 134.188 0 169.412 0 212.89C0 220.129 6.175 226 13.7893 226H194.211C201.825 226 208 220.129 208 212.89C208 169.412 170.95 134.188 125.218 134.188H82.7821Z"
                  fill="black"/>
        </g>
        <defs>
            <clipPath id="clip0_50_893">
                <rect width="208" height="226" fill="white"/>
            </clipPath>
        </defs>

    </svg>

    <svg id="multi-menu-icon">
        <path d="M0 12C0 5.37258 5.37258 0 12 0H31C37.6274 0 43 5.37258 43 12V15C43 21.6274 37.6274 27 31 27H12C5.37258 27 0 21.6274 0 15V12Z"
              fill="black"/>
        <path d="M1 13C1 6.37258 6.37258 1 13 1H30C36.6274 1 42 6.37258 42 13V14C42 20.6274 36.6274 26 30 26H13C6.37258 26 1 20.6274 1 14V13Z"
              fill="#D9D9D9"/>
        <path d="M10.3956 13.7275C10.3956 12.9891 10.6874 12.2809 11.2067 11.7588C11.7261 11.2367 12.4304 10.9434 13.1649 10.9434C13.8993 10.9434 14.6037 11.2367 15.123 11.7588C15.6423 12.2809 15.9341 12.9891 15.9341 13.7275C15.9341 14.4658 15.6423 15.174 15.123 15.6961C14.6037 16.2182 13.8993 16.5115 13.1649 16.5115C12.4304 16.5115 11.7261 16.2182 11.2067 15.6961C10.6874 15.174 10.3956 14.4658 10.3956 13.7275ZM18.3077 13.7275C18.3077 12.9891 18.5995 12.2809 19.1188 11.7588C19.6381 11.2367 20.3425 10.9434 21.0769 10.9434C21.8114 10.9434 22.5158 11.2367 23.0351 11.7588C23.5544 12.2809 23.8462 12.9891 23.8462 13.7275C23.8462 14.4658 23.5544 15.174 23.0351 15.6961C22.5158 16.2182 21.8114 16.5115 21.0769 16.5115C20.3425 16.5115 19.6381 16.2182 19.1188 15.6961C18.5995 15.174 18.3077 14.4658 18.3077 13.7275ZM28.989 10.9434C29.7235 10.9434 30.4278 11.2367 30.9472 11.7588C31.4665 12.2809 31.7583 12.9891 31.7583 13.7275C31.7583 14.4658 31.4665 15.174 30.9472 15.6961C30.4278 16.2182 29.7235 16.5115 28.989 16.5115C28.2546 16.5115 27.5502 16.2182 27.0309 15.6961C26.5116 15.174 26.2198 14.4658 26.2198 13.7275C26.2198 12.9891 26.5116 12.2809 27.0309 11.7588C27.5502 11.2367 28.2546 10.9434 28.989 10.9434Z"
              fill="black"/>

    </svg>


    <svg id="remove-icon">
        <circle cx="21.5" cy="21.5" r="20.5" fill="#D9D9D9" stroke="black" stroke-width="2"/>
        <rect x="9" y="20" width="25" height="4" fill="black"/>
    </svg>

</svg>
